<svg xmlns="http://www.w3.org/2000/svg" viewBox="0 0 128 128" width="24" height="24">
  <rect width="128" height="128" rx="10" fill="#F7DF1E"/>
  <path d="M84.918 104.166c1.732 3.537 3.577 6.527 7.154 6.527 3.66 0 5.975-1.434 5.975-6.993V70.678h11.003v33.455c0 11.341-6.673 16.525-16.401 16.525-8.783 0-13.904-4.537-16.49-9.988l8.759-5.504zm-32.07.89c1.96 3.469 4.506 6.097 9.012 6.097 4.591 0 7.5-2.262 7.5-10.527V70.678h11v30.145c0 11.358-6.703 16.688-16.472 16.688-8.816 0-13.961-4.528-16.548-10.002l8.507-5.453zM69.005 48.455h10.997v10.987H69.005V48.455zm-11.005 10.987V48.455h11.005v10.987H58.005z" fill="#000"/>
</svg>
