<svg xmlns="http://www.w3.org/2000/svg" viewBox="0 0 128 128" width="24" height="24">
  <rect width="128" height="128" rx="10" fill="#C6538C"/>
  <path d="M68.527 20.922c-.97-1.237-6.16-4.18-11.33-.84-5.344 3.435-7.353 10.39-16.334 14.73-6.363 3.03-13.55 5.723-15.4 9.477-3.24 6.473 4.178 10.56 6.604 11.583-7.934-4.23-7.987-11.347-.494-14.8 6.527-3.114 17.22-7.67 20.69-13.547 4.648-7.622 10.392-8.195 11.354-8.013 2.304.434 3.908 1.72 5.234 2.687 1.6 1.218 2.965 2.29 5.046 3.573 2.042 1.25 4.487 2.645 5.407 5.553 2.99 9.626-11.077 20.84-17.688 26.055-1.835 1.41-3.6 2.635-5.177 3.8 5.65 4.778 15.144 11.585 10.547 17.618-2.438 3.205-9.772 4.316-19.04 1.82-5.58-1.46-9.72-4.845-12.38-9.172-2.556-4.23-3.066-8.778-1.688-12.29 3.516-8.888 16.314-9.76 21.81-8.686 5.536 1.105 7.89 3.228 7.226 4.978-.892 2.33-8.733-2.574-15.29-2.013-5.805.496-11.664 5.594-9.447 12.428 2.18 6.63 11.145 8.077 18.333 3.77 5.227-3.087 9.244-9.204 11.203-12.89 5.127-9.742 9.392-22.594 3.823-26.447-5.963-4.227-8.215-4.46-12.12-7.42zm-5.89 40.927c-.253.06-7.405 2.02-8.73 3.96-1.43 2.045-.65 6.218 1.838 7.45 3.338 1.6 9.898-3.083 9.898-3.083s-4.17-8.54-3.006-8.326zm-23.733 3.764c-3.064 1.12-5.36 5.64-4.39 10.064.844 3.63 3.57 6.167 6.567 6.388 2.912.197 6.06-1.88 6.895-5.144.82-3.203-.952-7.128-3.813-8.11-1.486-.49-2.905-.486-5.26-1.2z" fill="#fff"/>
</svg>
